<svg width="16" height="18" fill="none" xmlns="http://www.w3.org/2000/svg"><path d="M7.868 11.003c-.864 0-1.605-.263-2.224-.788-.62-.525-.93-1.148-.93-1.867V3.04c0-.746.31-1.375.93-1.887C6.263.64 7.004.385 7.868.385c.863 0 1.597.255 2.2.767.602.512.904 1.14.904 1.887v5.31c0 .718-.302 1.34-.904 1.866-.603.525-1.337.788-2.2.788zm5.5-2.655h1.808c0 1.494-.611 2.8-1.833 3.92s-2.697 1.79-4.424 2.012v2.903H6.817V14.28c-1.728-.221-3.202-.899-4.424-2.033C1.17 11.114.56 9.814.56 8.348h1.76c0 1.272.553 2.337 1.661 3.194 1.108.857 2.404 1.286 3.887 1.286s2.77-.429 3.862-1.286c1.091-.857 1.637-1.922 1.637-3.194z" fill="#fff" fill-opacity=".4"/></svg>