<svg width="15" height="20" fill="none" xmlns="http://www.w3.org/2000/svg"><path d="M.05 10.7a7.887 7.887 0 01.247-3.025c.887-3.139 3.671-5.447 6.974-5.488V.135c0-.114.138-.175.228-.106l4.072 3.103c.067.053.067.158 0 .207L7.503 6.442c-.094.069-.228.008-.228-.106V4.288c-2.172.037-4.025 1.425-4.822 3.387a5.63 5.63 0 00.75 5.566 1.076 1.076 0 01-.193 1.506.998.998 0 01-1.406-.203A7.675 7.675 0 01.05 10.7zm11.757-3.94a5.553 5.553 0 011.162 3.146 5.67 5.67 0 01-.412 2.419c-.797 1.962-2.65 3.355-4.822 3.387v-2.048c0-.114-.138-.175-.228-.106l-4.073 3.103c-.066.053-.066.159 0 .207l4.069 3.103c.094.069.228.008.228-.106v-2.052c3.302-.037 6.09-2.345 6.974-5.488a7.965 7.965 0 00.248-3.025A7.635 7.635 0 0013.4 5.456c-.345-.447-.962-.541-1.406-.203a1.079 1.079 0 00-.188 1.506z" fill="#fff"/></svg>