<svg width="164" height="104" fill="none" xmlns="http://www.w3.org/2000/svg"><path d="M54.059 1.836c15.716-3.443 33.39 3.892 41.82 19.46 10.254-7.485 25.093-6.212 33.862 3.743 3.575 3.967 5.936 9.28 6.476 14.97 9.848 1.347 19.291 7.784 24.08 17.664 4.048 8.233 4.25 18.712.338 27.095-5.397 11.751-17.133 18.862-28.87 18.862H32.609c-11.467 0-23.272-6.886-28.668-18.413-4.047-8.233-4.047-18.712 0-27.095 3.845-8.533 11.467-14.67 19.562-17.215 0-6.587 1.349-13.174 4.317-18.862C33.215 11.34 43.334 4.08 53.99 1.835h.068zm56.256 51.121c-4.452 1.647-7.757 6.437-7.825 11.751-3.777 1.497-7.217 5.015-7.217 9.73-.203 5.989 4.991 10.48 10.118 10.48h31.703c2.36 0 4.721-.6 6.745-2.246 3.372-2.245 4.991-7.185 3.507-11.227-1.214-3.967-4.721-6.213-8.094-7.036-.675-2.02-1.349-4.192-3.035-5.464-2.901-2.545-7.015-2.545-10.118-.599-3.373-5.538-10.118-7.859-15.784-5.464v.075z" fill="#E4E3E3" stroke="#E4E3E3" stroke-width=".1"/><path d="M109.715 53.309c5.764-2.495 12.71-.151 16.182 5.444 3.265-1.966 7.501-1.966 10.418.605 1.806 1.285 2.501 3.478 3.195 5.52 3.473.755 7.084 3.023 8.335 7.03 1.528 4.084-.209 9.074-3.612 11.342-2.084 1.664-4.514 2.269-6.945 2.269h-32.643c-5.279 0-10.627-4.537-10.418-10.586 0-4.763 3.472-8.317 7.501-9.83 0-5.292 3.472-10.206 7.987-11.945v.15z" fill="#ACA6A6" stroke="#ACA6A6" stroke-width=".1"/></svg>